<?xml version="1.0" ?><svg enable-background="new 0 0 52 52" id="Layer_1" version="1.1" viewBox="0 0 52 52" xml:space="preserve" xmlns="http://www.w3.org/2000/svg" xmlns:xlink="http://www.w3.org/1999/xlink"><g><g><g><g><path d="M50,47.9472656H2v-24h48V47.9472656z M4,45.9472656h44v-20H4V45.9472656z" fill="#0096E6"/></g></g><g><g><g><rect fill="#0096E6" height="2" width="3" x="6" y="27.9472656"/></g></g><g><g><rect fill="#0096E6" height="2" width="3" x="12" y="27.9472656"/></g></g><g><g><rect fill="#0096E6" height="2" width="3" x="18" y="27.9472656"/></g></g><g><g><rect fill="#0096E6" height="2" width="3" x="24" y="27.9472656"/></g></g><g><g><rect fill="#0096E6" height="2" width="3" x="30" y="27.9472656"/></g></g><g><g><rect fill="#0096E6" height="2" width="3" x="36" y="27.9472656"/></g></g><g><g><rect fill="#0096E6" height="2" width="3" x="42" y="27.9472656"/></g></g><g><g><g><rect fill="#0096E6" height="2" width="3" x="6" y="35.9472656"/></g></g><g><g><rect fill="#0096E6" height="2" width="3" x="12" y="35.9472656"/></g></g><g><g><rect fill="#0096E6" height="2" width="3" x="18" y="35.9472656"/></g></g><g><g><rect fill="#0096E6" height="2" width="3" x="24" y="35.9472656"/></g></g><g><g><rect fill="#0096E6" height="2" width="3" x="30" y="35.9472656"/></g></g><g><g><rect fill="#0096E6" height="2" width="3" x="36" y="35.9472656"/></g></g><g><g><rect fill="#0096E6" height="2" width="3" x="42" y="35.9472656"/></g></g></g><g><g><g><rect fill="#0096E6" height="2" width="3" x="9" y="31.9472656"/></g></g><g><g><rect fill="#0096E6" height="2" width="3" x="15" y="31.9472656"/></g></g><g><g><rect fill="#0096E6" height="2" width="3" x="21" y="31.9472656"/></g></g><g><g><rect fill="#0096E6" height="2" width="3" x="27" y="31.9472656"/></g></g><g><g><rect fill="#0096E6" height="2" width="3" x="33" y="31.9472656"/></g></g><g><g><rect fill="#0096E6" height="2" width="3" x="40" y="31.9472656"/></g></g></g><g><g><rect fill="#0096E6" height="2" width="3" x="8" y="40.9472656"/></g></g><g><g><rect fill="#0096E6" height="2" width="3" x="14" y="40.9472656"/></g></g><g><g><rect fill="#0096E6" height="2" width="3" x="20" y="40.9472656"/></g></g><g><g><rect fill="#0096E6" height="2" width="10" x="26" y="40.9472656"/></g></g><g><g><rect fill="#0096E6" height="2" width="3" x="39" y="40.9472656"/></g></g><g><g><rect fill="#0096E6" height="2" width="2" x="44" y="40.9472656"/></g></g></g></g><g><g><path d="M27.0004883,24.9472656h-2v-5.0585938c0-1.6298828-0.6347656-3.1616211-1.7866211-4.3139648     c-0.9370117-0.9365234-1.4121094-2.2314453-1.3027344-3.5517578c0.1088867-1.3208008,0.7900391-2.5200195,1.8681641-3.2900391     c0.487793-0.3486328,0.7509766-0.9125977,0.7041016-1.5097656s-0.3945313-1.1137695-0.9306641-1.3813477l0.8945313-1.7890625     C25.6162109,4.637207,26.375,5.7636719,26.4770508,7.0668945c0.1025391,1.3027344-0.4716797,2.5336914-1.5351563,3.293457     c-0.5986328,0.4277344-0.9770508,1.09375-1.0375977,1.8271484s0.203125,1.4526367,0.7236328,1.9731445     c1.5297852,1.5297852,2.3725586,3.5639648,2.3725586,5.7280273V24.9472656z" fill="#0096E6"/></g></g></g></svg>